<?xml version="1.0" encoding="utf-8"?>
<!-- Generator: Adobe Illustrator 24.2.3, SVG Export Plug-In . SVG Version: 6.00 Build 0)  -->
<svg version="1.1" id="Layer_1" xmlns="http://www.w3.org/2000/svg" xmlns:xlink="http://www.w3.org/1999/xlink" x="0px" y="0px"
	 viewBox="0 0 1080 500" style="enable-background:new 0 0 1080 500;" xml:space="preserve">
<style type="text/css">
	.st0{fill:#FF6C55;}
	.st1{fill:#62355C;}
</style>
<g>
	<rect class="st0" width="1080" height="500"/>
</g>
<g>
	<g>
		<path class="st1" d="M162.93,304.33c-5.98,0-12.1-0.89-18.35-2.66c-6.26-1.77-11.93-4.4-17.03-7.89
			c-5.09-3.49-8.94-7.75-11.54-12.79c-2.6-5.04-3.29-10.82-2.08-17.36c0.22-1,0.78-1.85,1.66-2.58c0.88-0.72,1.83-1.08,2.82-1.08
			h33.89c1.88,0,3.18,0.42,3.9,1.25c0.72,0.83,1.3,2.19,1.74,4.07c0.66,2.22,1.52,3.88,2.58,4.98c1.05,1.11,2.96,1.66,5.73,1.66
			c2.99,0,5.56-0.97,7.72-2.91c2.16-1.94,3.79-5.45,4.9-10.55l8.14-38.37h-49.33c-1.22,0-2.16-0.44-2.82-1.33
			c-0.66-0.89-0.89-1.94-0.66-3.16l5.32-24.75c0.22-1.22,0.86-2.27,1.91-3.16c1.05-0.88,2.19-1.33,3.41-1.33h87.87
			c1.22,0,2.18,0.44,2.91,1.33c0.72,0.89,0.97,1.94,0.75,3.16l-14.78,68.93c-2.1,10.19-5.65,18.58-10.63,25.17
			c-4.98,6.59-11.44,11.46-19.35,14.62C183.66,302.75,174.11,304.33,162.93,304.33z"/>
		<path class="st1" d="M285.18,304.33c-7.31,0-14.2-0.94-20.68-2.82c-6.48-1.88-12.07-4.71-16.78-8.47
			c-4.71-3.76-8.14-8.44-10.3-14.04c-2.16-5.59-2.63-12.1-1.41-19.52c0.77-4.54,1.72-9.36,2.82-14.45
			c1.11-5.09,2.21-10.02,3.32-14.78c3.65-14.51,10.38-25.72,20.18-33.64c9.8-7.92,23.67-11.88,41.61-11.88c7.31,0,14.2,1,20.68,2.99
			c6.48,1.99,12.07,4.93,16.78,8.8c4.71,3.88,8.14,8.64,10.3,14.29s2.63,12.13,1.41,19.43c-0.78,4.76-1.72,9.69-2.82,14.78
			c-1.11,5.1-2.22,9.91-3.32,14.45c-3.77,14.84-10.52,26.02-20.26,33.55C316.96,300.57,303.12,304.33,285.18,304.33z M288.84,271.94
			c3.65,0,6.81-1.08,9.47-3.24c2.66-2.16,4.54-5.56,5.65-10.22c1.22-4.76,2.33-9.47,3.32-14.12c1-4.65,1.88-9.25,2.66-13.79
			c0.88-4.65,0.42-8.06-1.41-10.22c-1.83-2.16-4.51-3.24-8.06-3.24c-3.55,0-6.64,1.08-9.3,3.24c-2.66,2.16-4.6,5.57-5.81,10.22
			c-1.11,4.54-2.16,9.14-3.16,13.79c-1,4.65-1.94,9.36-2.82,14.12c-0.78,4.65-0.31,8.06,1.41,10.22
			C282.5,270.86,285.18,271.94,288.84,271.94z"/>
		<path class="st1" d="M408.6,304.33c-7.09,0-13.87-0.91-20.35-2.74s-12.04-4.59-16.69-8.3c-4.65-3.71-7.97-8.42-9.97-14.12
			c-1.99-5.7-2.16-12.48-0.5-20.35l14.45-67.94c0.22-1.22,0.86-2.27,1.91-3.16c1.05-0.88,2.19-1.33,3.41-1.33h32.56
			c1.22,0,2.19,0.44,2.91,1.33c0.72,0.89,0.97,1.94,0.75,3.16l-14.45,67.27c-0.78,4.1-0.39,7.25,1.16,9.47
			c1.55,2.22,4.37,3.32,8.47,3.32c4.1,0,7.42-1.11,9.97-3.32c2.55-2.21,4.21-5.37,4.98-9.47l14.45-67.27
			c0.22-1.22,0.86-2.27,1.91-3.16c1.05-0.88,2.18-1.33,3.4-1.33h32.56c1.22,0,2.19,0.44,2.91,1.33c0.72,0.89,0.97,1.94,0.75,3.16
			l-14.45,67.94c-3.43,15.73-9.94,27.24-19.52,34.55C439.63,300.67,426.09,304.33,408.6,304.33z"/>
		<path class="st1" d="M483.51,302.67c-1.22,0-2.16-0.44-2.82-1.33c-0.67-0.88-0.89-1.94-0.67-3.16l22.76-107.3
			c0.22-1.22,0.89-2.27,1.99-3.16c1.11-0.88,2.27-1.33,3.49-1.33h49.17c15.95,0,27.63,3.6,35.05,10.8c7.42,7.2,9.8,17.05,7.14,29.57
			c-1.55,7.42-4.6,13.87-9.13,19.35c-4.54,5.48-9.75,9.88-15.62,13.21l12.29,37.87c0.11,0.33,0.19,0.61,0.25,0.83
			c0.05,0.22,0.03,0.56-0.08,1c-0.22,1-0.78,1.86-1.66,2.57c-0.89,0.72-1.83,1.08-2.82,1.08h-34.05c-2.22,0-3.74-0.55-4.57-1.66
			c-0.83-1.11-1.36-2.05-1.58-2.82l-7.47-31.73h-6.81l-6.81,31.73c-0.22,1.22-0.89,2.27-1.99,3.16c-1.11,0.89-2.27,1.33-3.49,1.33
			H483.51z M535.01,234.9h12.12c2.55,0,4.65-0.86,6.31-2.58c1.66-1.72,2.71-3.68,3.16-5.9c0.44-2.21,0.28-4.29-0.5-6.23
			c-0.78-1.94-2.55-2.91-5.32-2.91h-12.12L535.01,234.9z"/>
		<path class="st1" d="M601.12,302.67c-1.22,0-2.19-0.44-2.91-1.33c-0.72-0.88-0.97-1.94-0.75-3.16l22.92-107.3
			c0.22-1.22,0.86-2.27,1.91-3.16c1.05-0.88,2.19-1.33,3.41-1.33h26.25c2.21,0,3.74,0.5,4.57,1.5c0.83,1,1.3,1.77,1.41,2.33
			l18.44,46.01l9.63-45.35c0.22-1.22,0.86-2.27,1.91-3.16c1.05-0.88,2.19-1.33,3.41-1.33h30.07c1.22,0,2.19,0.44,2.91,1.33
			c0.72,0.89,0.97,1.94,0.75,3.16l-22.92,107.3c-0.22,1.22-0.86,2.27-1.91,3.16c-1.05,0.89-2.19,1.33-3.41,1.33h-26.25
			c-2.22,0-3.74-0.52-4.57-1.58c-0.83-1.05-1.36-1.8-1.58-2.24l-18.94-42.36l-8.97,41.69c-0.22,1.22-0.86,2.27-1.91,3.16
			c-1.05,0.89-2.19,1.33-3.41,1.33H601.12z"/>
		<path class="st1" d="M723.87,302.67c-1.22,0-2.19-0.44-2.91-1.33c-0.72-0.88-0.97-1.94-0.75-3.16l22.92-107.3
			c0.22-1.22,0.86-2.27,1.91-3.16c1.05-0.88,2.19-1.33,3.41-1.33h85.21c1.22,0,2.19,0.44,2.91,1.33c0.72,0.89,0.97,1.94,0.75,3.16
			l-4.98,23.42c-0.33,1.22-1.02,2.27-2.08,3.16c-1.05,0.89-2.19,1.33-3.41,1.33h-49.83l-2.33,10.46h46.18
			c1.22,0,2.19,0.44,2.91,1.33c0.72,0.89,0.97,1.94,0.75,3.16l-4.65,21.59c-0.22,1.22-0.89,2.27-1.99,3.16
			c-1.11,0.89-2.27,1.33-3.49,1.33h-46.18l-2.16,10.46h51.16c1.22,0,2.16,0.44,2.82,1.33c0.67,0.89,0.89,1.94,0.67,3.16l-4.98,23.42
			c-0.22,1.22-0.86,2.27-1.91,3.16c-1.05,0.89-2.19,1.33-3.41,1.33H723.87z"/>
		<path class="st1" d="M863.56,302.67c-1.22,0-2.19-0.44-2.91-1.33c-0.72-0.88-0.97-1.94-0.75-3.16l6.98-32.72l-21.59-73.92
			c-0.44-1.33-0.19-2.52,0.75-3.57c0.94-1.05,2.13-1.58,3.57-1.58h29.57c2.21,0,3.76,0.56,4.65,1.66c0.88,1.11,1.38,1.94,1.5,2.49
			l9.47,33.39l23.75-33.39c0.33-0.55,1.16-1.38,2.49-2.49c1.33-1.11,3.1-1.66,5.32-1.66h32.89c1.55,0,2.52,0.61,2.91,1.83
			c0.39,1.22,0.19,2.33-0.58,3.32l-53.15,73.92l-6.98,32.72c-0.22,1.22-0.86,2.27-1.91,3.16c-1.05,0.89-2.19,1.33-3.41,1.33H863.56z
			"/>
	</g>
</g>
</svg>
