<svg xmlns="http://www.w3.org/2000/svg" viewBox="0 0 100 100"><defs><style>.cls-1{fill:#ff6c55;}.cls-2{fill:#62355c;}</style></defs><g id="Square_background" data-name="Square background"><g id="Background"><rect class="cls-1" width="100" height="100"/></g></g><g id="Logo"><path class="cls-2" d="M24.16,61.79a12.9,12.9,0,0,1-3.57-.52,11,11,0,0,1-3.31-1.53A6.84,6.84,0,0,1,15,57.25a5.09,5.09,0,0,1-.4-3.38.89.89,0,0,1,.32-.5.86.86,0,0,1,.55-.21h6.59a.94.94,0,0,1,.76.25,1.89,1.89,0,0,1,.34.79,2.51,2.51,0,0,0,.5,1,1.56,1.56,0,0,0,1.12.32,2.16,2.16,0,0,0,1.5-.57,3.77,3.77,0,0,0,1-2.05l1.59-7.46h-9.6a.65.65,0,0,1-.55-.26.76.76,0,0,1-.13-.61l1-4.82a1,1,0,0,1,.38-.61,1,1,0,0,1,.66-.26H37.73a.68.68,0,0,1,.57.26.69.69,0,0,1,.14.61L35.57,53.13A12.07,12.07,0,0,1,33.5,58a8.62,8.62,0,0,1-3.77,2.84A14.9,14.9,0,0,1,24.16,61.79Z" transform="translate(0)"/><path class="cls-2" d="M38,61.47a.7.7,0,0,1-.56-.26.73.73,0,0,1-.15-.61l4.46-20.88a1.06,1.06,0,0,1,.37-.61,1,1,0,0,1,.67-.26h5.1a1.09,1.09,0,0,1,.89.29,1.34,1.34,0,0,1,.28.45l3.58,8.95,1.88-8.82a1,1,0,0,1,.37-.61,1,1,0,0,1,.66-.26h5.85a.68.68,0,0,1,.57.26.72.72,0,0,1,.14.61L57.67,60.6a1,1,0,0,1-.37.61,1,1,0,0,1-.66.26H51.53a1.06,1.06,0,0,1-.89-.31,2.91,2.91,0,0,1-.3-.43l-3.69-8.25L44.91,60.6a1.09,1.09,0,0,1-.37.61,1,1,0,0,1-.67.26Z" transform="translate(0)"/><path class="cls-2" d="M67.56,61.47a.67.67,0,0,1-.56-.26.7.7,0,0,1-.15-.61l1.36-6.37L64,39.85a.67.67,0,0,1,.14-.7.91.91,0,0,1,.7-.3H70.6a1.1,1.1,0,0,1,.9.32,1.42,1.42,0,0,1,.29.49l1.85,6.49,4.62-6.49a2.26,2.26,0,0,1,.48-.49,1.6,1.6,0,0,1,1-.32h6.39a.53.53,0,0,1,.57.35.66.66,0,0,1-.11.65L76.29,54.23,74.93,60.6a1.09,1.09,0,0,1-.37.61,1,1,0,0,1-.67.26Z" transform="translate(0)"/></g></svg>