<?xml version="1.0" standalone="no"?>
<!DOCTYPE svg PUBLIC "-//W3C//DTD SVG 20010904//EN"
 "http://www.w3.org/TR/2001/REC-SVG-20010904/DTD/svg10.dtd">
<svg version="1.0" xmlns="http://www.w3.org/2000/svg"
 width="700.000000pt" height="700.000000pt" viewBox="0 0 700.000000 700.000000"
 preserveAspectRatio="xMidYMid meet">
<metadata>
Created by potrace 1.11, written by Peter Selinger 2001-2013
</metadata>
<g transform="translate(0.000000,700.000000) scale(0.100000,-0.100000)"
fill="#000000" stroke="none">
<path d="M1490 5299 c-45 -18 -90 -71 -105 -124 -8 -27 -46 -198 -84 -380 -39
-181 -197 -922 -351 -1645 -192 -900 -279 -1325 -275 -1347 3 -18 19 -43 36
-57 l31 -26 570 0 571 0 43 25 c28 17 49 39 62 67 11 24 66 257 122 518 55
261 103 482 106 492 4 14 43 17 402 21 415 5 479 10 687 59 548 127 888 458
1040 1014 95 348 85 579 -36 814 -137 264 -436 453 -843 535 -67 13 -170 29
-230 34 -143 14 -1711 14 -1746 0z m1418 -948 c60 -9 98 -33 127 -82 29 -49
27 -192 -4 -271 -28 -73 -97 -149 -163 -182 -51 -25 -56 -26 -260 -26 -170 0
-208 3 -208 14 0 13 107 519 115 544 5 14 299 16 393 3z"/>
<path d="M5110 5299 c-37 -15 -88 -68 -100 -103 -5 -17 -149 -686 -320 -1486
-171 -800 -331 -1549 -356 -1665 -28 -133 -43 -222 -39 -242 3 -18 19 -43 36
-58 l31 -25 577 2 578 3 34 27 c19 14 43 43 52 65 9 21 61 250 116 508 55 259
215 1008 355 1667 141 658 256 1203 256 1213 0 29 -30 74 -60 90 -25 13 -106
15 -582 14 -341 0 -563 -4 -578 -10z"/>
</g>
</svg>
