<?xml version="1.0" standalone="no"?>
<!DOCTYPE svg PUBLIC "-//W3C//DTD SVG 20010904//EN"
 "http://www.w3.org/TR/2001/REC-SVG-20010904/DTD/svg10.dtd">
<svg version="1.0" xmlns="http://www.w3.org/2000/svg"
 width="700.000000pt" height="700.000000pt" viewBox="0 0 700.000000 700.000000"
 preserveAspectRatio="xMidYMid meet">
<metadata>
Created by potrace 1.11, written by Peter Selinger 2001-2013
</metadata>
<g transform="translate(0.000000,700.000000) scale(0.100000,-0.100000)"
fill="#000000" stroke="none">
<path d="M1400 4332 c-19 -15 -30 -51 -61 -198 -44 -207 -44 -208 -23 -228 13
-14 60 -16 361 -16 l345 0 -5 -22 c-4 -13 -31 -141 -62 -286 -30 -145 -64
-281 -75 -302 -24 -47 -60 -77 -110 -90 -75 -20 -128 11 -149 87 -21 75 -14
73 -301 73 -253 0 -257 0 -277 -22 -41 -46 -37 -171 9 -268 58 -121 227 -235
424 -286 91 -23 111 -25 264 -21 143 4 177 8 255 31 130 39 219 89 295 167 76
77 148 205 179 319 26 95 221 1006 221 1030 0 10 -7 26 -16 34 -14 14 -85 16
-634 16 -583 0 -619 -1 -640 -18z"/>
<path d="M2947 4328 c-19 -19 -47 -142 -181 -771 -121 -565 -157 -753 -149
-765 9 -15 38 -17 234 -20 123 -1 234 0 246 3 13 3 29 18 36 33 8 15 40 152
72 304 32 153 61 276 63 273 2 -2 62 -133 133 -291 71 -158 136 -295 145 -305
16 -17 35 -19 234 -19 203 0 218 1 235 20 13 14 62 229 176 762 87 409 159
748 159 755 0 6 -7 19 -16 27 -13 14 -49 16 -243 16 -212 0 -229 -1 -248 -20
-23 -21 -24 -24 -103 -400 -29 -135 -53 -246 -55 -248 -1 -2 -60 140 -129 315
-75 188 -135 325 -148 336 -18 15 -45 17 -230 17 -203 0 -209 -1 -231 -22z"/>
<path d="M4497 4332 c-10 -10 -17 -26 -17 -35 0 -9 66 -241 146 -514 142 -484
146 -500 137 -553 -5 -30 -27 -139 -49 -241 -33 -159 -37 -189 -25 -203 12
-14 45 -16 261 -16 221 0 250 2 269 18 17 14 31 64 71 252 l51 234 361 505
c199 277 363 514 366 526 8 43 -10 46 -281 43 l-255 -3 -27 -25 c-15 -14 -97
-124 -182 -245 -181 -256 -162 -230 -169 -223 -3 3 -30 93 -60 199 -66 236
-80 276 -104 289 -11 6 -116 10 -248 10 -209 0 -230 -2 -245 -18z"/>
</g>
</svg>
